<svg width="181" height="36" viewBox="0 0 181 36" fill="none" xmlns="http://www.w3.org/2000/svg">
<g clip-path="url(#clip0_1390_4440)">
<path d="M68.5428 29.1117C69.8267 29.0874 71.1118 29.1169 72.3957 29.0863C73.7251 29.0547 74.403 28.2307 74.2203 26.9109C74.0514 25.6933 73.9331 24.4674 73.8318 23.2478C73.7061 21.7264 73.4844 20.2156 73.3724 18.6932C73.3281 18.0939 73.2552 17.4809 72.9976 16.9239C72.5351 15.9174 71.7305 15.3909 70.6662 15.0733C68.9186 14.5521 67.2039 13.9202 65.4532 13.4053C65.3201 13.3663 65.2959 13.2428 65.2378 13.1342C63.9781 10.7498 62.654 8.39811 61.4608 5.98207C60.3574 3.74539 58.5983 2.89714 56.1802 2.94989C52.9629 3.02164 49.7414 2.97627 46.5219 2.95728C46.0658 2.95517 45.9148 3.04168 45.9169 3.54177C45.9369 9.55338 45.9327 15.565 45.9253 21.5766C45.9253 22.0091 46.1207 22.5831 45.8356 22.8342C45.5938 23.0463 45.0299 22.868 44.616 22.9165C44.1778 22.9671 44.1176 22.7814 44.1187 22.3953C44.1282 15.1176 44.1187 7.83999 44.1345 0.563399C44.1356 0.0939071 44.0173 -0.00104639 43.5601 8.6497e-06C35.1329 0.0179443 26.7058 0.0179443 18.2786 0.0200544C12.4025 0.0200544 6.52645 0.0200544 0.650354 0.0200544C0.387434 0.0211094 0.116067 -0.0791192 0.113956 0.404088C0.0917817 7.62899 0.0484897 14.8539 -8.18014e-05 22.0777C-0.00219361 22.4016 0.078055 22.4997 0.406441 22.4934C1.44439 22.4723 2.48234 22.485 3.5203 22.485C4.13272 22.485 4.40057 22.7937 4.32384 23.4113C4.32173 23.4282 4.32278 23.4461 4.32067 23.464C4.17812 24.7164 4.18235 25.9655 4.3175 27.221C4.35657 27.5882 4.47589 27.6378 4.79266 27.6293C5.9362 27.5977 7.07869 27.5914 8.22223 27.5829C8.36055 27.5808 8.62664 27.5164 8.54322 27.7707C8.35527 28.3457 8.52633 28.8975 8.55061 29.4619C8.63509 31.4475 9.40484 33.087 10.9095 34.3879C11.0573 34.5156 11.6138 34.9756 11.6138 34.9756C11.6138 34.9756 7.80726 34.9249 6.40819 34.9091C5.62154 34.8996 5.03235 35.176 4.72297 35.9546H15.2978C15.0434 35.8534 14.9325 35.809 14.8206 35.7637C13.4764 35.2224 12.2463 34.467 11.4396 33.2611C9.91273 30.9801 9.76068 28.581 11.1471 26.147C12.6232 23.5558 14.8206 22.1716 17.833 22.2887C19.7115 22.3615 21.2869 23.1992 22.4167 24.6974C23.725 26.4319 24.085 28.3953 23.5582 30.5233C23.0207 32.6946 21.705 34.1853 19.7147 35.1518C19.0642 35.4672 18.3452 35.6075 17.6208 35.9926H18.4075C35.965 35.9926 53.5225 35.9895 71.0811 36C71.9713 36 72.6428 35.77 72.9078 34.7793H61.7375C62.1155 34.5725 62.4006 34.4111 62.6909 34.2571C65.0815 32.9921 66.375 30.2078 65.8724 27.6051C65.1903 24.0812 61.7565 22.3225 58.6521 23.3522C56.743 23.9863 55.4126 25.3547 54.702 27.2865C53.9481 29.3385 54.1519 31.2597 55.4295 33.0406C55.9268 33.7327 56.6353 34.2202 57.3597 34.7973H22.459C23.4811 33.9247 24.3733 33.1282 25.0132 31.9972C25.6826 30.8124 26.0437 29.6213 26.0765 28.2951C26.0955 27.5354 25.9772 27.6452 26.7639 27.642C35.0326 27.6061 43.3004 27.5671 51.5691 27.5576C52.1393 27.5576 52.3431 27.3381 52.4899 26.8497C53.0759 24.8989 54.2131 23.3385 55.9089 22.1969C56.8307 21.5766 57.818 21.0216 58.9024 20.8444C59.8379 20.6925 60.8199 20.7273 61.7808 20.8961C64.4258 21.3614 66.3475 22.7857 67.5407 25.1827C68.0866 26.2799 68.2587 27.4574 68.2059 28.6728C68.1954 28.907 68.1732 29.118 68.5428 29.1117ZM69.6916 19.3842C69.9492 19.1795 70.4983 19.342 70.9185 19.342C71.8048 19.3301 72.2729 19.7612 72.3229 20.6355C72.3598 21.2938 72.3862 21.9532 72.4306 22.6116C72.4454 22.8405 72.3567 22.8753 72.1392 22.9154C71.0115 23.1243 70.286 22.5715 69.7021 21.7053C69.6177 21.5808 69.587 21.4563 69.5891 21.3128C69.5923 21.0849 69.5733 20.856 69.5913 20.6292C69.624 20.2008 69.3875 19.6258 69.6916 19.3842ZM59.8801 26.3907C61.7702 26.3622 62.7311 27.1662 62.7342 28.7276C62.6962 30.3229 61.5199 31.7197 60.0111 31.7672C58.536 31.8136 57.5719 30.6721 57.5593 29.3638C57.5434 27.6452 58.8654 26.4055 59.8801 26.3907ZM35.6894 22.4691C35.6028 22.5557 35.5152 22.6422 35.4286 22.7297C35.2987 22.8606 35.1699 22.9914 35.0411 23.1233C34.9439 23.2224 34.8479 23.3206 34.7528 23.4208C34.4646 23.7183 34.1816 24.0211 33.9028 24.3281C31.7361 24.3397 29.5726 24.3503 27.4069 24.3629C27.0352 24.365 27.1746 24.2258 27.3267 24.0812C28.541 22.8542 29.7563 21.6262 31.0783 20.2894H11.6529L15.1975 17.1729C15.188 17.1433 15.2028 17.1264 15.2503 17.1264C16.755 17.1285 18.2607 17.1285 19.7654 17.1285C21.7357 17.1285 23.7049 17.1275 25.6752 17.1285L25.6404 17.1106H33.868L35.267 16.1547L33.982 14.8549C31.5756 14.856 28.1851 14.857 24.9678 14.8581C23.5634 14.8592 22.1591 14.8592 20.7547 14.8592C18.2966 14.8592 16.377 14.8602 15.7698 14.8602H15.5681C15.5681 14.8602 12.2706 11.9082 12.3867 11.7099C12.4796 11.5527 23.1918 11.6286 28.2221 11.6191H28.8957C29.3001 11.6191 29.7035 11.6181 30.1079 11.617C30.1132 11.617 30.1185 11.617 30.1238 11.6181C30.1333 11.6181 30.1417 11.6181 30.1523 11.6191H30.9801L30.6707 11.3163L27.2359 7.94866H33.963C34.0781 7.94866 34.1742 7.9666 34.1689 8.1143C34.2967 8.11852 34.3991 8.16284 34.4931 8.25779C36.2723 10.0429 38.0462 11.8312 39.8381 13.6037C40.6617 14.4192 41.519 15.1999 42.3954 16.0292C40.1992 18.2806 37.8656 20.3063 35.6894 22.4702V22.4691ZM62.3921 14.531C62.3678 14.8127 62.2137 14.7568 61.9856 14.7009C59.0745 13.9856 56.1443 13.3483 53.2374 12.6119C52.3083 12.3767 51.3706 12.1646 50.4351 11.9536C50.1722 11.8956 50.1437 11.8059 50.1447 11.5896C50.15 9.86883 50.1532 8.14806 50.1394 6.4273C50.1373 6.13505 50.2471 6.0823 50.5037 6.08547C51.6283 6.09496 52.7538 6.08969 53.8784 6.08969C54.9322 6.09074 55.9881 6.1129 57.0419 6.08441C57.9193 6.0612 58.405 6.45051 58.8358 7.23124C59.897 9.15668 60.8727 11.1338 62.0933 12.9706C62.4037 13.438 62.4396 13.9856 62.3921 14.531Z" fill="white"/>
<path d="M16.7814 33.6695C14.7066 33.9807 12.4195 31.8569 12.5557 29.2942C12.6782 27.0027 14.5493 24.478 17.3157 24.5001C19.569 24.5191 21.6777 26.1682 21.5584 29.1402C21.457 31.667 19.2713 33.8119 16.7804 33.6684L16.7814 33.6695ZM16.9346 30.7112C17.9144 30.7101 18.7 29.9209 18.6947 28.945C18.6895 28.1158 18.1246 27.5492 17.302 27.5492C16.2419 27.5492 15.4236 28.3447 15.4267 29.3744C15.4288 30.2016 16.0054 30.7122 16.9356 30.7112H16.9346Z" fill="white"/>
<path d="M52.7063 32.8064C51.9851 32.8865 51.3136 32.7283 50.6515 32.6766C50.0877 32.6323 49.5122 32.5911 48.9452 32.5299C47.4258 32.3643 45.8926 32.3263 44.371 32.1839C42.783 32.0351 41.1991 31.861 39.6057 31.7566C38.2922 31.6701 36.9882 31.4654 35.6662 31.438C35.266 31.4295 34.851 31.3462 34.4424 31.3261C34.4867 30.7554 34.7444 30.6119 35.286 30.5866C37.3081 30.4916 39.3323 30.4526 41.3543 30.3755C43.2212 30.3038 45.0901 30.2542 46.9548 30.1624C48.5302 30.0854 50.1035 30.1097 51.6779 30.0749C51.9619 30.0685 52.0284 30.135 52.0728 30.4357C52.1889 31.2312 52.3537 32.0235 52.7063 32.8064Z" fill="white"/>
<path d="M34.7528 23.4208C34.4667 23.7183 34.1837 24.0211 33.9039 24.3281H33.9028C34.1816 24.0211 34.4646 23.7183 34.7528 23.4208Z" fill="#FD8F01"/>
<path d="M39.8382 13.6026C38.0463 11.8302 36.2724 10.0419 34.4932 8.25676C34.3992 8.1618 34.1891 7.94763 34.1891 7.94763H27.236L30.6708 11.3143L30.9802 11.6181H30.1524C30.1418 11.6171 30.1334 11.6171 30.1239 11.6171C30.1186 11.616 30.1133 11.616 30.108 11.616C29.7036 11.6171 29.3002 11.6181 28.8958 11.6181H28.2222C23.1919 11.6287 12.4797 11.5527 12.3868 11.7099C12.2707 11.9082 15.5682 14.8602 15.5682 14.8602H15.7699C16.3771 14.8602 18.2967 14.8592 20.7548 14.8592C22.0483 14.8581 23.4896 14.8581 24.9679 14.8581C28.1852 14.8571 31.5757 14.856 33.9821 14.855L35.2672 16.1548L33.8681 17.1106H25.6405L25.6753 17.1286C23.705 17.1275 21.7358 17.1286 19.7655 17.1286C18.2608 17.1286 16.7551 17.1286 15.2504 17.1265L15.1976 17.1729L11.653 20.2895H31.0784C29.7564 21.6262 28.5411 22.8543 27.3268 24.0813C27.1747 24.2258 27.0353 24.3651 27.407 24.363C29.5727 24.3503 31.7362 24.3398 33.9029 24.3281C34.1817 24.0211 34.4647 23.7183 34.7529 23.4208C34.848 23.3206 34.944 23.2225 35.0412 23.1233C35.17 22.9914 35.2988 22.8606 35.4287 22.7298C35.5153 22.6422 35.6029 22.5546 35.6895 22.4692C37.8657 20.3053 40.1993 18.2796 42.3956 16.0282C41.5192 15.1989 40.6618 14.4182 39.8382 13.6026Z" fill="#F64D00"/>
</g>
<path d="M178.693 22.1185C178.693 23.7729 178.244 25.0665 177.346 25.9993C176.466 26.9321 175.243 27.3985 173.677 27.3985C173.43 27.3985 173.245 27.3897 173.122 27.3721V24.0457H173.386C174.548 24.0457 175.129 23.4033 175.129 22.1185C175.129 21.2561 174.812 20.5433 174.178 19.9801C173.562 19.4169 172.682 19.1001 171.538 19.0297V29.1673H167.974V29.1409L167.948 29.1673L159.975 23.6497V20.1121C161.418 18.9505 162.747 18.0177 163.961 17.3137C165.176 16.5921 166.513 16.0905 167.974 15.8089V14.4097H158.47V11.4529H180.118V14.4097H171.538V15.8089C173.421 15.8617 175.085 16.4601 176.528 17.6041C177.971 18.7305 178.693 20.2353 178.693 22.1185ZM167.974 25.3129V19.1353C166.443 19.6457 164.868 20.5697 163.249 21.9073L167.974 25.3129Z" fill="white"/>
<path d="M159.539 14.4096H157.295V29.1672H153.599V16.0464C153.599 15.36 153.502 14.92 153.308 14.7264C153.132 14.5152 152.763 14.4096 152.2 14.4096H151.355V11.4528H152.675C153.256 11.4528 153.696 11.752 153.995 12.3504C153.819 11.4 153.731 10.5552 153.731 9.81602V9.34082H157.295V11.4528H159.539V14.4096Z" fill="white"/>
<path d="M135.735 25.3921L139.326 25.3657C139.255 25.7529 139.22 26.1841 139.22 26.6593C139.22 27.8561 139.801 28.4545 140.962 28.4545C141.438 28.4545 142.098 28.3313 142.942 28.0849C143.805 27.8209 144.474 27.6889 144.949 27.6889C145.635 27.6889 146.137 27.8385 146.454 28.1377V26.1577C145.873 26.3161 145.274 26.3953 144.658 26.3953C143.145 26.3953 141.878 25.9993 140.857 25.2073C139.854 24.3977 139.352 23.2977 139.352 21.9073V14.4097H134.468V11.4529H147.114C147.114 11.3649 147.114 11.2329 147.114 11.0569C147.131 10.8809 147.14 10.7753 147.14 10.7401C147.14 10.1945 147.043 9.78969 146.85 9.52569C146.674 9.26169 146.313 9.12969 145.767 9.12969C145.38 9.12969 144.702 9.21769 143.734 9.39369C142.766 9.55209 142.001 9.63129 141.438 9.63129C140.258 9.63129 139.343 9.43769 138.692 9.05049V6.22569C139.238 6.52489 140.038 6.67449 141.094 6.67449C141.658 6.67449 142.494 6.56889 143.602 6.35769C144.729 6.14649 145.591 6.04089 146.19 6.04089C147.58 6.04089 148.645 6.41049 149.384 7.14969C150.123 7.87129 150.493 8.89209 150.493 10.2121C150.493 10.6345 150.458 11.0481 150.387 11.4529H152.42V14.4097H143.048V21.9073C143.048 22.3825 143.198 22.7433 143.497 22.9897C143.796 23.2361 144.183 23.3593 144.658 23.3593C145.468 23.3593 146.093 23.1217 146.533 22.6465C146.973 22.1537 147.193 21.5553 147.193 20.8513C147.193 19.8305 146.709 19.3201 145.741 19.3201C145.354 19.3201 144.984 19.3553 144.632 19.4257V16.2049C145.178 16.0817 145.732 16.0201 146.295 16.0201C147.668 16.0201 148.777 16.4601 149.622 17.3401C150.484 18.2025 150.915 19.3729 150.915 20.8513C150.915 21.9073 150.607 22.8841 149.991 23.7817V32.2825H146.454V31.7809C146.454 31.1473 146.137 30.8305 145.503 30.8305C145.046 30.8305 144.289 30.9889 143.233 31.3057C142.194 31.6225 141.27 31.7809 140.461 31.7809C139.123 31.7809 137.962 31.3937 136.976 30.6193C136.008 29.8625 135.524 28.7185 135.524 27.1873C135.524 26.5537 135.594 25.9553 135.735 25.3921Z" fill="white"/>
<path d="M121.17 22.5937C121.17 24.5297 120.554 26.1577 119.322 27.4777C118.09 28.7801 116.391 29.4313 114.226 29.4313C111.762 29.4313 109.782 28.5865 108.286 26.8969C106.79 25.1897 106.042 22.8577 106.042 19.9009C106.042 19.4081 106.051 19.0209 106.069 18.7393H109.712C109.694 18.9857 109.686 19.3201 109.686 19.7425C109.686 21.8193 110.082 23.4297 110.874 24.5737C111.683 25.7001 112.801 26.2633 114.226 26.2633C115.265 26.2633 116.083 25.9993 116.682 25.4713C117.298 24.9433 117.65 24.1865 117.738 23.2009C117.262 23.3065 116.778 23.3593 116.286 23.3593C114.825 23.3593 113.646 22.9369 112.748 22.0921C111.85 21.2297 111.402 20.0857 111.402 18.6601C111.402 16.9705 111.947 15.5537 113.038 14.4097H104.458V11.4529H128.931V14.4097H120.51C121.654 15.9585 123.898 17.1817 127.242 18.0793C126.344 20.2793 125.895 22.6817 125.895 25.2865C125.895 26.5713 126.062 27.8649 126.397 29.1673H122.833C122.516 27.9001 122.358 26.6241 122.358 25.3393C122.358 23.2625 122.648 21.4497 123.229 19.9009C120.026 18.7393 117.949 17.1025 116.998 14.9905C115.819 15.9937 115.23 17.1201 115.23 18.3697C115.23 19.6897 116.004 20.3497 117.553 20.3497C118.609 20.3497 119.656 20.1121 120.694 19.6369C121.011 20.5521 121.17 21.5377 121.17 22.5937Z" fill="white"/>
<path d="M105.527 14.4096H103.283V29.1673H99.587V14.4096H97.343V11.4528H99.587V10.344C99.587 8.47845 100.185 7.08805 101.382 6.17285C102.597 5.25765 104.251 4.80005 106.345 4.80005C107.595 4.80005 108.889 4.94965 110.226 5.24885C111.581 5.53045 112.62 5.82965 113.341 6.14645V8.94485C112.567 8.66325 111.529 8.39925 110.226 8.15285C108.941 7.88885 107.745 7.75685 106.636 7.75685C104.418 7.75685 103.309 8.61045 103.309 10.3176V11.4528H105.527V14.4096Z" fill="white"/>
<path d="M96.7896 29.4049H91.9584L87.1272 26.1049V23.2009H89.7672C90.964 23.2009 91.8704 22.9457 92.4864 22.4353C93.1024 21.9073 93.4104 21.1945 93.4104 20.2969C93.4104 19.7161 93.252 19.2585 92.9352 18.9241C92.636 18.5897 92.2312 18.4225 91.7208 18.4225C91.228 18.4225 90.832 18.5809 90.5328 18.8977C90.2336 19.1969 90.084 19.5841 90.084 20.0593C90.084 20.5169 90.128 20.9041 90.216 21.2209H86.8632C86.7048 20.7105 86.6256 20.1737 86.6256 19.6105C86.6256 18.3785 87.0744 17.3841 87.972 16.6273C88.8872 15.8529 90.0928 15.4657 91.5888 15.4657C93.208 15.4657 94.5104 15.9321 95.496 16.8649C96.4816 17.7977 96.9744 18.9417 96.9744 20.2969C96.9744 21.7753 96.4904 22.9633 95.5224 23.8609C94.572 24.7409 93.3048 25.3041 91.7208 25.5505L96.7896 29.0089V29.4049ZM98.4 14.4097H85.2V11.4529H93.3576C93.3576 11.3649 93.3576 11.2329 93.3576 11.0569C93.3752 10.8809 93.384 10.7753 93.384 10.7401C93.384 10.1945 93.2872 9.78969 93.0936 9.52569C92.9176 9.26169 92.5568 9.12969 92.0112 9.12969C91.712 9.12969 91.1664 9.21769 90.3744 9.39369C89.5824 9.55209 88.9488 9.63129 88.4736 9.63129C87.5936 9.63129 86.828 9.43769 86.1768 9.05049V6.22569C86.7224 6.52489 87.3736 6.67449 88.1304 6.67449C88.588 6.67449 89.2568 6.56889 90.1368 6.35769C91.0344 6.14649 91.8 6.04089 92.4336 6.04089C93.824 6.04089 94.8888 6.41049 95.628 7.14969C96.3672 7.87129 96.7368 8.89209 96.7368 10.2121C96.7368 10.6345 96.7016 11.0481 96.6312 11.4529H98.4V14.4097Z" fill="white"/>
<defs>
<clipPath id="clip0_1390_4440">
<rect width="74.25" height="36" fill="white"/>
</clipPath>
</defs>
</svg>
